<?xml version="1.0" encoding="UTF-8"?>
<svg id="Capa_1" data-name="Capa 1" xmlns="http://www.w3.org/2000/svg" xmlns:xlink="http://www.w3.org/1999/xlink" viewBox="0 0 1920 1080">
  <defs>
    <style>
      .cls-1 {
        stroke: url(#Degradado_sin_nombre_9-2);
      }

      .cls-1, .cls-2 {
        fill: none;
        stroke-miterlimit: 10;
        stroke-width: 4px;
      }

      .cls-3 {
        fill: #24053e;
      }

      .cls-2 {
        stroke: url(#Degradado_sin_nombre_9);
      }
    </style>
    <linearGradient id="Degradado_sin_nombre_9" data-name="Degradado sin nombre 9" x1="-15.67" y1="156.19" x2="166.4" y2="338.26" gradientUnits="userSpaceOnUse">
      <stop offset="0" stop-color="#fff" stop-opacity="0"/>
      <stop offset=".53" stop-color="#9ea6b4" stop-opacity=".51"/>
      <stop offset="1" stop-color="#41526d"/>
    </linearGradient>
    <linearGradient id="Degradado_sin_nombre_9-2" data-name="Degradado sin nombre 9" x1="1539.63" y1="62.73" x2="1640.5" y2="163.6" gradientTransform="translate(2489.11 -1095.46) rotate(108.56)" xlink:href="#Degradado_sin_nombre_9"/>
  </defs>
  <path class="cls-3" d="m1926.97,540s-439.71,161-960,161S6.97,540,6.97,540V0h1920v540Z"/>
  <path class="cls-2" d="m188.67,295.77c-24.25,56.6-72.1,90.39-106.88,75.49-34.78-14.9-43.32-72.86-19.08-129.46,24.25-56.6,72.1-90.39,106.88-75.49,34.78,14.9,43.32,72.86,19.08,129.46Zm-54.08-144.46c-34.78-14.9-82.64,18.9-106.88,75.49-24.25,56.6-15.71,114.56,19.08,129.46,34.78,14.9,82.64-18.9,106.88-75.49s15.71-114.56-19.08-129.46Zm-65.64-28.12c-34.78-14.9-82.64,18.9-106.88,75.49-24.25,56.6-15.71,114.56,19.08,129.46,34.78,14.9,82.64-18.9,106.88-75.49s15.71-114.56-19.08-129.46Zm30.95,13.26c-34.78-14.9-82.64,18.9-106.88,75.49-24.25,56.6-15.71,114.56,19.08,129.46,34.78,14.9,82.64-18.9,106.88-75.49s15.71-114.56-19.08-129.46Z"/>
  <path class="cls-1" d="m1830.9,426.22c-25.13-22.43-34.32-53.12-20.54-68.56,13.78-15.44,45.32-9.78,70.45,12.64,25.13,22.43,34.32,53.12,20.54,68.56-13.78,15.44-45.32,9.78-70.45-12.64Zm84.32-2.9c13.78-15.44,4.59-46.14-20.54-68.56-25.13-22.43-56.67-28.09-70.45-12.64-13.78,15.44-4.59,46.14,20.54,68.56,25.13,22.43,56.67,28.09,70.45,12.64Zm26.01-29.14c13.78-15.44,4.59-46.14-20.54-68.56-25.13-22.43-56.67-28.09-70.45-12.64-13.78,15.44-4.59,46.14,20.54,68.56,25.13,22.43,56.67,28.09,70.45,12.64Zm-12.26,13.74c13.78-15.44,4.59-46.14-20.54-68.56-25.13-22.43-56.67-28.09-70.45-12.64-13.78,15.44-4.59,46.14,20.54,68.56,25.13,22.43,56.67,28.09,70.45,12.64Z"/>
</svg>